<?xml version="1.0" encoding="UTF-8" standalone="no"?>
<!DOCTYPE svg PUBLIC "-//W3C//DTD SVG 1.1//EN" "http://www.w3.org/Graphics/SVG/1.1/DTD/svg11.dtd">
<svg version="1.1" xmlns="http://www.w3.org/2000/svg" xmlns:xlink="http://www.w3.org/1999/xlink" preserveAspectRatio="xMidYMid meet" viewBox="0 0 640 640" width="653" height="653"><defs><path d="M320.01 640C143.4 640 0 496.62 0 320.01C0 143.4 143.4 0 320.01 0C496.62 0 640 143.4 640 320.01C640 496.62 496.62 640 320.01 640Z" id="bbAiTRT6L"></path><path d="M342.68 170.02C342.68 264.01 342.68 529.34 342.68 624.24C342.68 632.95 335.63 640 326.93 640C321.01 640 318.49 640 312.46 640C304.1 640 297.34 633.24 297.34 624.88C297.34 529.86 297.34 264.01 297.34 170.02C297.34 158.82 306.41 149.75 317.61 149.75C322.62 149.75 317.38 149.75 322.39 149.75C333.59 149.75 342.68 158.82 342.68 170.02Z" id="g4OOHP0XEi"></path><path d="M467.08 240.09C439.88 284.76 364.15 409.07 336.97 453.73C333.71 459.08 326.77 460.85 321.35 457.72C316.5 454.91 311.71 452.16 306.88 449.35C301.51 446.27 299.77 439.36 302.98 434.07C330.17 389.43 405.89 265.12 433.08 220.46C436.34 215.11 443.28 213.34 448.72 216.47C453.55 219.28 458.33 222.02 463.18 224.84C468.53 227.92 470.3 234.81 467.08 240.09Z" id="a2f7RbERb"></path><path d="M300.7 543.51C277.18 496.81 211.71 366.81 188.2 320.1C185.41 314.55 187.63 307.77 193.21 304.96C199.28 301.9 207.47 297.77 213.57 294.71C219.12 291.92 225.9 294.17 228.71 299.72C252.22 346.42 317.68 476.42 341.19 523.13C344 528.68 341.75 535.46 336.2 538.25C330.1 541.33 321.92 545.44 315.84 548.5C310.29 551.31 303.51 549.06 300.7 543.51Z" id="f4AcIIjFQt"></path></defs><g><g><g><use xlink:href="#bbAiTRT6L" opacity="1" fill="#d2f0d0" fill-opacity="1"></use><g><use xlink:href="#bbAiTRT6L" opacity="1" fill-opacity="0" stroke="#000000" stroke-width="1" stroke-opacity="0"></use></g></g><g><use xlink:href="#g4OOHP0XEi" opacity="1" fill="#c9c5c5" fill-opacity="1"></use><g><use xlink:href="#g4OOHP0XEi" opacity="1" fill-opacity="0" stroke="#000000" stroke-width="1" stroke-opacity="0"></use></g></g><g><use xlink:href="#a2f7RbERb" opacity="1" fill="#c9c5c5" fill-opacity="1"></use><g><use xlink:href="#a2f7RbERb" opacity="1" fill-opacity="0" stroke="#000000" stroke-width="1" stroke-opacity="0"></use></g></g><g><use xlink:href="#f4AcIIjFQt" opacity="1" fill="#c9c5c5" fill-opacity="1"></use><g><use xlink:href="#f4AcIIjFQt" opacity="1" fill-opacity="0" stroke="#000000" stroke-width="1" stroke-opacity="0"></use></g></g></g></g></svg>